# xmcd
# 
# Track frame offsets:
#     150
#     47936
#     73338
#     99464
#     146597
#     164982
#     198805
# 
# Disc length: 3095
# 
# Revision: 1
# Processed by: cddbd v1.5.2PL0 Copyright (c) Steve Scherf et al.
# Submitted via: fre:ac v1.0.17
# 
DISCID=6c0c1507
DTITLE=Charlie Robison - Live At Billy Bob´s Texas - CD 2
DYEAR=2013
DGENRE=Country
TTITLE0=El Cerrito Place
TTITLE1=The Bottom
TTITLE2=John O'Reilly
TTITLE3=Loving County
TTITLE4=Rocket Man
TTITLE5=They Call Me the Breeze
TTITLE6=My Hometown
EXTD=
EXTT0=
EXTT1=
EXTT2=
EXTT3=
EXTT4=
EXTT5=
EXTT6=
PLAYORDER=
